[IMG]http://img821.imageshack.us/img821/8361/intruders.jpg[/IMG]
[code]
Intruders 2011 TS READNFO XviD AC3-26K

Imdb: 
http://www.imdb.com/title/tt1634121/

Plot:
Two children living in different countries are visited nightly by a faceless being who wants to take possession of them.

Sources:
THNXS TO SOURCES!!

Notes:
REANDFO AUDIO ON THIS IS NOT GREAT.... ALSO AS SOME FORIEGN PARTS IN THE MOVIE WHICH THERE ARE NO SUBS FOR.... ON THE VIDEO IT NEEDED SOME CROP AND WAS VERY VERY DARK SO BUMPED UP THE BRIGHTNESS... SO ENJOY..!! !!THANK YOU TO SPECIAL FRIEND WHO HELPED ME FIX THE AUDIO YOU KNOW WHO YOU ARE THANK YOU BRO'S!!
DVDR SOON....

Greetz:
Xtreme Encode|FYA|ILLUMANTI|CM8|RX|VISION|HDSCENE|NIGHTMAREZ|xTriLL|DTRG|CRYS|REMIXHD|BIDA|RX|REFILL|INSPiRAL|SIC|ZOMBIESZ|HOPE|Anonymous|GooN
To all the people who have helped me :P you know who you are

Anything to offer email us @: 26k@hushmail.me

Video
ID                                       : 0
Format                                   : MPEG-4 Visual
Format profile                           : Advanced Simple@L5
Format settings, BVOP                    : 2
Format settings, QPel                    : No
Format settings, GMC                     : No warppoints
Format settings, Matrix                  : Default (H.263)
Codec ID                                 : XVID
Codec ID/Hint                            : XviD
Duration                                 : 1h 34mn
Bit rate                                 : 2 300 Kbps
Width                                    : 720 pixels
Height                                   : 320 pixels
Display aspect ratio                     : 2.25:1
Frame rate                               : 25.000 fps
Color space                              : YUV
Chroma subsampling                       : 4:2:0
Bit depth                                : 8 bits
Scan type                                : Progressive
Compression mode                         : Lossy
Bits/(Pixel*Frame)                       : 0.399
Stream size                              : 1.52 GiB (88%)
Writing library                          : XviD 64

Audio
ID                                       : 1
Format                                   : AC-3
Format/Info                              : Audio Coding 3
Mode extension                           : CM (complete main)
Codec ID                                 : 2000
Duration                                 : 1h 34mn
Bit rate mode                            : Constant
Bit rate                                 : 320 Kbps
Channel(s)                               : 2 channels
Channel positions                        : Front: L R
Sampling rate                            : 48.0 KHz
Bit depth                                : 16 bits
Compression mode                         : Lossy
Delay relative to video                  : 350ms
Stream size                              : 216 MiB (12%)
Alignment                                : Split accross interleaves
Interleave, duration                     : 6549 ms (163.72 video frames)

[/code]
Screens:
[IMG]http://i.imgur.com/WcQ3k.png[/IMG]
[IMG]http://i.imgur.com/sGrtg.png[/IMG]
[IMG]http://img404.imageshack.us/img404/1205/vlcsnap2012022419h24m41.png[/IMG]
[IMG]http://img851.imageshack.us/img851/9969/vlcsnap2012022419h24m44.png[/IMG]
[IMG]http://img190.imageshack.us/img190/8016/vlcsnap2012022419h24m56.png[/IMG]
[IMG]http://img20.imageshack.us/img20/8703/vlcsnap2012022419h25m52.png[/IMG]

[img]http://img851.imageshack.us/img851/5503/26ks.jpg[/img]
Thank you smallz for banner!